<?xml version="1.0" encoding="UTF-8"?>
<svg xmlns="http://www.w3.org/2000/svg" xmlns:xlink="http://www.w3.org/1999/xlink" width="100px" height="100px" viewBox="0 0 100 100" version="1.1">
<g id="surface1">
<path style=" stroke:none;fill-rule:nonzero;fill:rgb(99.607843%,70.980394%,0.392157%);fill-opacity:1;" d="M 58.800781 30.800781 C 59.503906 31.367188 60.15625 31.96875 60.800781 32.601562 C 60.941406 32.734375 61.082031 32.871094 61.226562 33.011719 C 62.464844 34.296875 63.265625 35.785156 64 37.398438 C 64.089844 37.601562 64.183594 37.804688 64.277344 38.011719 C 65.503906 41.402344 65.269531 45.925781 63.800781 49.199219 C 63.71875 49.378906 63.636719 49.558594 63.554688 49.746094 C 63.382812 50.105469 63.195312 50.453125 63 50.800781 C 63.195312 50.914062 63.386719 51.03125 63.585938 51.148438 C 64.199219 51.601562 64.199219 51.601562 64.375 52.050781 C 64.382812 52.164062 64.390625 52.28125 64.398438 52.398438 C 64.136719 52.464844 63.871094 52.53125 63.601562 52.601562 C 63.601562 52.730469 63.601562 52.863281 63.601562 53 C 63.730469 53 63.863281 53 64 53 C 64.84375 53.96875 65.050781 54.921875 65 56.199219 C 64.613281 57.503906 63.917969 58.253906 62.800781 59 C 62.207031 59.058594 62.207031 59.058594 61.523438 59.0625 C 61.300781 59.066406 61.078125 59.070312 60.84375 59.074219 C 60.140625 58.992188 59.757812 58.832031 59.199219 58.398438 C 59.199219 58.269531 59.199219 58.136719 59.199219 58 C 59.066406 58 58.9375 58 58.800781 58 C 58.46875 57.40625 58.140625 56.8125 57.800781 56.199219 C 57.511719 56.320312 57.511719 56.320312 57.21875 56.441406 C 54.128906 57.6875 50.933594 58.402344 47.601562 57.835938 C 47.183594 57.765625 47.183594 57.765625 46.800781 57.800781 C 46.214844 58.25 46.214844 58.25 45.800781 58.800781 C 45.167969 59.011719 44.6875 59.039062 44.023438 59.050781 C 43.714844 59.058594 43.714844 59.058594 43.402344 59.066406 C 42.429688 58.960938 41.925781 58.527344 41.25 57.851562 C 40.753906 57.132812 40.652344 56.660156 40.601562 55.800781 C 40.136719 55.800781 39.675781 55.800781 39.199219 55.800781 C 39.199219 55.46875 39.199219 55.140625 39.199219 54.800781 C 39.027344 54.800781 38.851562 54.800781 38.675781 54.804688 C 38.03125 54.804688 37.386719 54.808594 36.742188 54.8125 C 36.464844 54.8125 36.1875 54.8125 35.90625 54.816406 C 35.507812 54.816406 35.109375 54.820312 34.707031 54.820312 C 34.46875 54.820312 34.226562 54.820312 33.976562 54.824219 C 33.398438 54.800781 33.398438 54.800781 33 54.601562 C 33 54.46875 33 54.335938 33 54.199219 C 35.113281 54.199219 37.222656 54.199219 39.398438 54.199219 C 39.398438 54.003906 39.398438 53.804688 39.398438 53.601562 C 38.144531 53.601562 36.890625 53.601562 35.601562 53.601562 C 35.601562 53.402344 35.601562 53.203125 35.601562 53 C 36.589844 53 37.578125 53 38.601562 53 C 38.121094 52.1875 38.121094 52.1875 37.609375 52.097656 C 37.460938 52.09375 37.3125 52.09375 37.160156 52.089844 C 36.992188 52.085938 36.824219 52.082031 36.652344 52.078125 C 36.46875 52.078125 36.289062 52.078125 36.105469 52.078125 C 35.917969 52.074219 35.734375 52.070312 35.542969 52.066406 C 34.949219 52.058594 34.355469 52.054688 33.761719 52.050781 C 33.359375 52.042969 32.957031 52.039062 32.554688 52.03125 C 31.570312 52.015625 30.585938 52.007812 29.601562 52 C 29.601562 51.800781 29.601562 51.605469 29.601562 51.398438 C 32.175781 51.398438 34.746094 51.398438 37.398438 51.398438 C 37.335938 51.203125 37.269531 51.003906 37.199219 50.800781 C 37.03125 50.792969 36.863281 50.785156 36.6875 50.777344 C 36.46875 50.765625 36.25 50.75 36.023438 50.738281 C 35.808594 50.726562 35.589844 50.714844 35.363281 50.703125 C 35.179688 50.667969 34.992188 50.636719 34.800781 50.601562 C 34.667969 50.402344 34.535156 50.203125 34.398438 50 C 34.601562 49.800781 34.601562 49.800781 35.058594 49.78125 C 35.242188 49.78125 35.421875 49.785156 35.613281 49.789062 C 35.886719 49.789062 35.886719 49.789062 36.167969 49.792969 C 36.382812 49.796875 36.382812 49.796875 36.601562 49.800781 C 36.546875 49.6875 36.492188 49.574219 36.4375 49.457031 C 36.367188 49.300781 36.296875 49.148438 36.226562 48.988281 C 36.15625 48.835938 36.085938 48.6875 36.015625 48.53125 C 35.761719 47.902344 35.585938 47.25 35.398438 46.601562 C 33.089844 46.535156 30.78125 46.46875 28.398438 46.398438 C 28.464844 46.203125 28.53125 46.003906 28.601562 45.800781 C 30.777344 45.800781 32.957031 45.800781 35.199219 45.800781 C 35.199219 45.46875 35.199219 45.140625 35.199219 44.800781 C 33.8125 44.800781 32.429688 44.800781 31 44.800781 C 31 44.601562 31 44.402344 31 44.199219 C 32.386719 44.199219 33.773438 44.199219 35.199219 44.199219 C 35.167969 43.308594 35.167969 43.308594 35.136719 42.398438 C 35.105469 39.066406 36.292969 36.597656 38 33.800781 C 38.132812 33.800781 38.265625 33.800781 38.398438 33.800781 C 38.449219 33.6875 38.5 33.570312 38.550781 33.453125 C 39.894531 31.007812 43.046875 29.382812 45.628906 28.613281 C 50.25 27.425781 54.851562 28.007812 58.800781 30.800781 Z M 58.800781 30.800781 "/>
<path style=" stroke:none;fill-rule:nonzero;fill:rgb(98.039216%,97.647059%,96.862745%);fill-opacity:1;" d="M 50.875 39.210938 C 51.957031 39.492188 52.359375 40 52.929688 40.941406 C 53.800781 42.496094 53.800781 42.496094 53.800781 43 C 54.121094 43.050781 54.441406 43.09375 54.761719 43.136719 C 54.941406 43.164062 55.121094 43.1875 55.304688 43.214844 C 55.808594 43.253906 55.808594 43.253906 56.128906 42.917969 C 56.21875 42.8125 56.308594 42.707031 56.398438 42.601562 C 57.078125 42.375 57.609375 42.375 58.324219 42.375 C 58.558594 42.375 58.792969 42.375 59.03125 42.375 C 59.601562 42.398438 59.601562 42.398438 59.800781 42.601562 C 59.816406 43.105469 59.820312 43.605469 59.8125 44.113281 C 59.8125 44.253906 59.8125 44.398438 59.808594 44.542969 C 59.808594 44.894531 59.804688 45.246094 59.800781 45.601562 C 59.273438 45.46875 58.742188 45.335938 58.199219 45.199219 C 58.273438 45.34375 58.347656 45.488281 58.421875 45.632812 C 58.753906 46.28125 59.082031 46.925781 59.414062 47.574219 C 59.527344 47.800781 59.644531 48.027344 59.765625 48.257812 C 59.875 48.472656 59.980469 48.6875 60.09375 48.910156 C 60.195312 49.109375 60.296875 49.308594 60.402344 49.515625 C 60.46875 49.675781 60.53125 49.835938 60.601562 50 C 60.535156 50.132812 60.46875 50.265625 60.398438 50.398438 C 60.660156 50.429688 60.660156 50.429688 60.925781 50.460938 C 63.320312 50.769531 63.320312 50.769531 64.199219 51.601562 C 64.375 52.050781 64.375 52.050781 64.398438 52.398438 C 64.136719 52.464844 63.871094 52.53125 63.601562 52.601562 C 63.601562 52.730469 63.601562 52.863281 63.601562 53 C 63.730469 53 63.863281 53 64 53 C 64.84375 53.96875 65.050781 54.921875 65 56.199219 C 64.613281 57.503906 63.917969 58.253906 62.800781 59 C 62.207031 59.058594 62.207031 59.058594 61.523438 59.0625 C 61.300781 59.066406 61.078125 59.070312 60.84375 59.074219 C 60.140625 58.992188 59.757812 58.832031 59.199219 58.398438 C 59.199219 58.269531 59.199219 58.136719 59.199219 58 C 59.066406 58 58.9375 58 58.800781 58 C 58.46875 57.40625 58.140625 56.8125 57.800781 56.199219 C 57.609375 56.28125 57.417969 56.359375 57.21875 56.441406 C 54.128906 57.6875 50.933594 58.402344 47.601562 57.835938 C 47.183594 57.765625 47.183594 57.765625 46.800781 57.800781 C 46.214844 58.25 46.214844 58.25 45.800781 58.800781 C 45.167969 59.011719 44.6875 59.039062 44.023438 59.050781 C 43.820312 59.054688 43.613281 59.058594 43.402344 59.066406 C 42.429688 58.960938 41.925781 58.527344 41.25 57.851562 C 40.753906 57.132812 40.652344 56.660156 40.601562 55.800781 C 40.136719 55.800781 39.675781 55.800781 39.199219 55.800781 C 39.199219 55.46875 39.199219 55.140625 39.199219 54.800781 C 39.027344 54.800781 38.851562 54.800781 38.675781 54.804688 C 38.03125 54.804688 37.386719 54.808594 36.742188 54.8125 C 36.464844 54.8125 36.1875 54.8125 35.90625 54.816406 C 35.507812 54.816406 35.109375 54.820312 34.707031 54.820312 C 34.46875 54.820312 34.226562 54.820312 33.976562 54.824219 C 33.398438 54.800781 33.398438 54.800781 33 54.601562 C 33 54.46875 33 54.335938 33 54.199219 C 35.113281 54.199219 37.222656 54.199219 39.398438 54.199219 C 39.398438 54.003906 39.398438 53.804688 39.398438 53.601562 C 38.144531 53.601562 36.890625 53.601562 35.601562 53.601562 C 35.601562 53.402344 35.601562 53.203125 35.601562 53 C 35.734375 53 35.867188 53 36.007812 52.996094 C 36.617188 52.992188 37.226562 52.976562 37.835938 52.960938 C 38.046875 52.960938 38.257812 52.960938 38.476562 52.960938 C 39.742188 52.9375 39.742188 52.9375 40.808594 52.320312 C 40.9375 52.148438 41.066406 51.976562 41.199219 51.800781 C 42.300781 51 42.300781 51 42.800781 51 C 42.933594 50.605469 43.0625 50.207031 43.199219 49.800781 C 42.738281 49.800781 42.277344 49.800781 41.800781 49.800781 C 41.800781 49.140625 41.800781 48.480469 41.800781 47.800781 C 40.546875 47.800781 39.292969 47.800781 38 47.800781 C 38 45.425781 38 43.046875 38 40.601562 C 40.507812 40.601562 43.015625 40.601562 45.601562 40.601562 C 45.601562 42.976562 45.601562 45.351562 45.601562 47.800781 C 46.324219 47.734375 47.050781 47.667969 47.800781 47.601562 C 47.601562 47.203125 47.601562 47.203125 47.398438 46.800781 C 47.089844 44.527344 47.675781 42.101562 49.023438 40.238281 C 49.574219 39.5625 49.960938 39.195312 50.875 39.210938 Z M 50.875 39.210938 "/>
<path style=" stroke:none;fill-rule:nonzero;fill:rgb(96.470588%,94.901961%,91.37255%);fill-opacity:1;" d="M 38 40.601562 C 40.507812 40.601562 43.015625 40.601562 45.601562 40.601562 C 45.601562 42.976562 45.601562 45.351562 45.601562 47.800781 C 46.324219 47.734375 47.050781 47.667969 47.800781 47.601562 C 47.667969 47.335938 47.535156 47.070312 47.398438 46.800781 C 47.359375 46.152344 47.359375 46.152344 47.375 45.449219 C 47.378906 45.214844 47.382812 44.980469 47.386719 44.742188 C 47.390625 44.5625 47.394531 44.382812 47.398438 44.199219 C 47.5 44.496094 47.5 44.496094 47.601562 44.800781 C 48.589844 44.800781 49.578125 44.800781 50.601562 44.800781 C 50.863281 44.074219 51.128906 43.347656 51.398438 42.601562 C 51.53125 42.601562 51.664062 42.601562 51.800781 42.601562 C 51.921875 42.945312 52.046875 43.289062 52.171875 43.636719 C 52.503906 44.164062 52.832031 44.339844 53.398438 44.601562 C 53.902344 44.664062 54.40625 44.707031 54.914062 44.738281 C 56.25 44.871094 56.25 44.871094 56.753906 45.304688 C 56.972656 45.734375 57.089844 46.128906 57.199219 46.601562 C 57.257812 46.777344 57.316406 46.957031 57.375 47.136719 C 57.871094 48.726562 58.078125 49.921875 57.324219 51.460938 C 57.039062 51.996094 56.738281 52.496094 56.398438 53 C 55.804688 52.933594 55.210938 52.867188 54.601562 52.800781 C 54.5 52.402344 54.5 52.402344 54.398438 52 C 54.070312 52 53.738281 52 53.398438 52 C 53.203125 52.660156 53.003906 53.320312 52.800781 54 C 50.9375 54.097656 50.9375 54.097656 50.289062 53.636719 C 49.839844 52.957031 49.769531 52.40625 49.761719 51.613281 C 49.757812 51.441406 49.757812 51.269531 49.753906 51.09375 C 49.800781 50.570312 49.9375 50.25 50.199219 49.800781 C 50.597656 49.800781 50.992188 49.800781 51.398438 49.800781 C 51.398438 49.207031 51.398438 48.613281 51.398438 48 C 50.992188 48 50.992188 48 50.578125 48.003906 C 49.554688 48.007812 48.53125 48.007812 47.507812 48.011719 C 47.066406 48.011719 46.628906 48.011719 46.1875 48.015625 C 43.449219 48.027344 40.734375 47.972656 38 47.800781 C 38 45.425781 38 43.046875 38 40.601562 Z M 38 40.601562 "/>
<path style=" stroke:none;fill-rule:nonzero;fill:rgb(100%,100%,100%);fill-opacity:1;" d="M 38 40.601562 C 40.441406 40.601562 42.882812 40.601562 45.398438 40.601562 C 45.398438 42.976562 45.398438 45.351562 45.398438 47.800781 C 42.957031 47.800781 40.515625 47.800781 38 47.800781 C 38 45.425781 38 43.046875 38 40.601562 Z M 38 40.601562 "/>
<path style=" stroke:none;fill-rule:nonzero;fill:rgb(100%,99.215686%,98.039216%);fill-opacity:1;" d="M 51.601562 39.398438 C 52.664062 40.179688 53.25 41.425781 53.800781 42.601562 C 53.800781 42.730469 53.800781 42.863281 53.800781 43 C 54.789062 43.199219 54.789062 43.199219 55.800781 43.398438 C 55.898438 43.992188 55.898438 43.992188 56 44.601562 C 55.214844 44.992188 54.257812 44.867188 53.398438 44.800781 C 52.550781 44.464844 52.191406 44.019531 51.800781 43.199219 C 51.800781 43.003906 51.800781 42.804688 51.800781 42.601562 C 51.667969 42.601562 51.535156 42.601562 51.398438 42.601562 C 51.378906 42.734375 51.359375 42.871094 51.335938 43.011719 C 51.171875 43.726562 50.902344 44.332031 50.601562 45 C 49.609375 44.933594 48.621094 44.867188 47.601562 44.800781 C 47.71875 42.703125 48.300781 40.976562 49.761719 39.414062 C 50.445312 39.082031 50.878906 39.199219 51.601562 39.398438 Z M 51.601562 39.398438 "/>
<path style=" stroke:none;fill-rule:nonzero;fill:rgb(99.607843%,71.764708%,4.313726%);fill-opacity:1;" d="M 51.398438 42.601562 C 51.53125 42.601562 51.664062 42.601562 51.800781 42.601562 C 51.984375 43.117188 51.984375 43.117188 52.171875 43.636719 C 52.503906 44.164062 52.832031 44.339844 53.398438 44.601562 C 53.902344 44.664062 54.40625 44.707031 54.914062 44.738281 C 56.25 44.871094 56.25 44.871094 56.753906 45.304688 C 56.972656 45.734375 57.089844 46.128906 57.199219 46.601562 C 57.257812 46.777344 57.316406 46.957031 57.375 47.136719 C 57.871094 48.726562 58.078125 49.921875 57.324219 51.460938 C 57.039062 51.996094 56.738281 52.496094 56.398438 53 C 55.804688 52.933594 55.210938 52.867188 54.601562 52.800781 C 54.535156 52.535156 54.46875 52.273438 54.398438 52 C 54.53125 52 54.664062 52 54.800781 52 C 54.84375 51.621094 54.84375 51.621094 54.886719 51.238281 C 54.949219 50.714844 55.03125 50.304688 55.199219 49.800781 C 55.222656 49.394531 55.234375 48.992188 55.238281 48.585938 C 55.242188 48.375 55.242188 48.164062 55.246094 47.941406 C 55.257812 47.371094 55.257812 47.371094 54.800781 47 C 54.425781 46.859375 54.425781 46.859375 53.996094 46.757812 C 53.835938 46.714844 53.675781 46.671875 53.515625 46.628906 C 53.347656 46.585938 53.183594 46.542969 53.011719 46.5 C 52.683594 46.414062 52.359375 46.332031 52.03125 46.242188 C 51.886719 46.207031 51.742188 46.167969 51.59375 46.132812 C 51.199219 46 51.199219 46 50.601562 45.601562 C 50.714844 44.507812 50.988281 43.617188 51.398438 42.601562 Z M 51.398438 42.601562 "/>
<path style=" stroke:none;fill-rule:nonzero;fill:rgb(99.607843%,72.549021%,2.745098%);fill-opacity:1;" d="M 56.800781 54.601562 C 56.867188 54.601562 56.933594 54.601562 57 54.601562 C 57 55.195312 57 55.789062 57 56.398438 C 53.972656 57.875 50.527344 58.417969 47.199219 57.800781 C 47 57.199219 47 57.199219 47.398438 55.601562 C 50.304688 55.601562 53.207031 55.601562 56.199219 55.601562 C 56.332031 55.335938 56.464844 55.070312 56.601562 54.800781 C 56.664062 54.734375 56.730469 54.667969 56.800781 54.601562 Z M 56.800781 54.601562 "/>
<path style=" stroke:none;fill-rule:nonzero;fill:rgb(96.470588%,96.862745%,96.862745%);fill-opacity:1;" d="M 52.601562 63 C 52.867188 63.058594 53.136719 63.128906 53.398438 63.199219 C 53.816406 63.230469 53.816406 63.230469 54.199219 63 C 55.023438 62.921875 55.457031 62.910156 56.164062 63.363281 C 56.777344 63.980469 57.0625 64.398438 57.085938 65.261719 C 57.074219 65.964844 56.972656 66.355469 56.523438 66.898438 C 55.886719 67.507812 55.78125 67.59375 54.898438 67.625 C 54.199219 67.601562 54.199219 67.601562 53.800781 67.398438 C 53.789062 67.527344 53.777344 67.65625 53.761719 67.785156 C 53.738281 68.035156 53.738281 68.035156 53.710938 68.289062 C 53.695312 68.453125 53.679688 68.617188 53.664062 68.785156 C 53.601562 69.199219 53.601562 69.199219 53.398438 69.398438 C 53.066406 69.40625 52.734375 69.410156 52.398438 69.398438 C 52.394531 68.519531 52.390625 67.640625 52.390625 66.761719 C 52.386719 66.460938 52.386719 66.164062 52.386719 65.863281 C 52.382812 65.433594 52.382812 65.003906 52.378906 64.574219 C 52.378906 64.316406 52.378906 64.058594 52.378906 63.792969 C 52.398438 63.199219 52.398438 63.199219 52.601562 63 Z M 53.824219 64.414062 C 53.46875 65.023438 53.660156 65.53125 53.800781 66.199219 C 54.261719 66.265625 54.722656 66.332031 55.199219 66.398438 C 55.535156 66.0625 55.535156 66.0625 55.800781 65.601562 C 55.75 64.925781 55.683594 64.683594 55.199219 64.199219 C 54.640625 64.128906 54.320312 64.132812 53.824219 64.414062 Z M 53.824219 64.414062 "/>
<path style=" stroke:none;fill-rule:nonzero;fill:rgb(96.862745%,97.647059%,97.647059%);fill-opacity:1;" d="M 46.601562 61.398438 C 47.125 61.300781 47.125 61.300781 47.800781 61.398438 C 48.273438 61.886719 48.640625 62.425781 49 63 C 49.425781 62.476562 49.828125 61.960938 50.199219 61.398438 C 50.925781 61.363281 50.925781 61.363281 51.601562 61.398438 C 51.316406 62.15625 50.96875 62.855469 50.574219 63.5625 C 50.46875 63.757812 50.359375 63.953125 50.25 64.152344 C 50.167969 64.300781 50.085938 64.449219 50 64.601562 C 50.117188 64.769531 50.230469 64.9375 50.351562 65.109375 C 50.5 65.332031 50.648438 65.554688 50.800781 65.773438 C 50.949219 65.992188 51.097656 66.210938 51.25 66.4375 C 51.601562 67 51.601562 67 51.601562 67.398438 C 50.976562 67.5 50.976562 67.5 50.199219 67.398438 C 49.714844 66.917969 49.355469 66.382812 49 65.800781 C 48.945312 65.914062 48.886719 66.03125 48.832031 66.148438 C 48.582031 66.609375 48.347656 67.007812 48 67.398438 C 47.238281 67.5 47.238281 67.5 46.601562 67.398438 C 46.8125 66.628906 47.09375 66.046875 47.550781 65.398438 C 47.964844 64.757812 47.964844 64.757812 47.925781 63.988281 C 47.59375 63.390625 47.230469 62.855469 46.804688 62.324219 C 46.601562 62 46.601562 62 46.601562 61.398438 Z M 46.601562 61.398438 "/>
<path style=" stroke:none;fill-rule:nonzero;fill:rgb(99.607843%,71.372551%,2.745098%);fill-opacity:1;" d="M 51.398438 47.800781 C 52.046875 47.855469 52.34375 47.949219 52.828125 48.390625 C 53.34375 49.238281 53.304688 49.917969 53.273438 50.886719 C 53.273438 51.054688 53.273438 51.222656 53.273438 51.390625 C 53.261719 52.335938 53.160156 53.113281 52.800781 54 C 50.976562 54.125 50.976562 54.125 50.289062 53.636719 C 49.839844 52.957031 49.769531 52.40625 49.761719 51.613281 C 49.757812 51.441406 49.757812 51.269531 49.753906 51.09375 C 49.800781 50.570312 49.9375 50.25 50.199219 49.800781 C 50.597656 49.800781 50.992188 49.800781 51.398438 49.800781 C 51.398438 49.140625 51.398438 48.480469 51.398438 47.800781 Z M 51.398438 47.800781 "/>
<path style=" stroke:none;fill-rule:nonzero;fill:rgb(100%,100%,100%);fill-opacity:1;" d="M 41.800781 48 C 44.96875 48 48.136719 48 51.398438 48 C 51.398438 48.527344 51.398438 49.054688 51.398438 49.601562 C 48.230469 49.601562 45.0625 49.601562 41.800781 49.601562 C 41.800781 49.070312 41.800781 48.542969 41.800781 48 Z M 41.800781 48 "/>
<path style=" stroke:none;fill-rule:nonzero;fill:rgb(98.039216%,97.254902%,94.901961%);fill-opacity:1;" d="M 51.886719 34.449219 C 52.121094 34.46875 52.121094 34.46875 52.363281 34.492188 C 52.878906 34.621094 53.078125 34.78125 53.398438 35.199219 C 53.398438 35.332031 53.398438 35.464844 53.398438 35.601562 C 53.929688 35.601562 54.457031 35.601562 55 35.601562 C 54.601562 36 54.601562 36 54.074219 36.023438 C 53.917969 36.015625 53.761719 36.007812 53.601562 36 C 53.625 36.316406 53.625 36.316406 53.648438 36.636719 C 53.59375 37.515625 53.410156 37.789062 52.800781 38.398438 C 52.160156 38.71875 51.496094 38.699219 50.800781 38.601562 C 50.238281 38.242188 49.898438 37.996094 49.601562 37.398438 C 49.515625 36.789062 49.503906 36.210938 49.601562 35.601562 C 50.304688 34.710938 50.769531 34.339844 51.886719 34.449219 Z M 51.886719 34.449219 "/>
<path style=" stroke:none;fill-rule:nonzero;fill:rgb(97.254902%,98.039216%,98.039216%);fill-opacity:1;" d="M 36.800781 63 C 37.339844 63.433594 37.691406 63.78125 38 64.398438 C 38.015625 64.910156 38.019531 65.414062 38.011719 65.925781 C 38.011719 66.066406 38.011719 66.207031 38.007812 66.351562 C 38.007812 66.703125 38.003906 67.050781 38 67.398438 C 37.464844 67.398438 36.933594 67.398438 36.398438 67.398438 C 36.335938 67.464844 36.269531 67.53125 36.199219 67.601562 C 35.46875 67.628906 34.898438 67.632812 34.199219 67.398438 C 33.738281 66.707031 33.714844 66.414062 33.800781 65.601562 C 34.101562 65.226562 34.101562 65.226562 34.398438 65 C 34.269531 64.933594 34.136719 64.867188 34 64.800781 C 34.070312 63.714844 34.070312 63.714844 34.613281 63.226562 C 35.367188 62.9375 36.003906 62.824219 36.800781 63 Z M 35.601562 64 C 35.257812 64.386719 35.257812 64.386719 35 64.800781 C 35.527344 64.800781 36.054688 64.800781 36.601562 64.800781 C 36.46875 64.535156 36.335938 64.273438 36.199219 64 C 36.003906 64 35.804688 64 35.601562 64 Z M 35.199219 65.800781 C 35.265625 66.0625 35.332031 66.328125 35.398438 66.601562 C 35.789062 66.5625 35.789062 66.5625 36.199219 66.398438 C 36.457031 66.003906 36.457031 66.003906 36.601562 65.601562 C 35.875 65.570312 35.875 65.570312 35.199219 65.800781 Z M 35.199219 65.800781 "/>
<path style=" stroke:none;fill-rule:nonzero;fill:rgb(96.862745%,98.039216%,98.039216%);fill-opacity:1;" d="M 64 63 C 64.710938 63.355469 65.089844 63.601562 65.476562 64.300781 C 65.601562 64.800781 65.601562 64.800781 65.601562 65.601562 C 64.484375 65.8125 63.519531 65.765625 62.398438 65.601562 C 62.464844 65.796875 62.53125 65.996094 62.601562 66.199219 C 62.972656 66.386719 62.972656 66.386719 63.398438 66.398438 C 63.597656 66.269531 63.796875 66.136719 64 66 C 64.636719 65.976562 64.636719 65.976562 65.199219 66 C 65.148438 66.652344 65.085938 66.925781 64.585938 67.363281 C 63.839844 67.664062 63.1875 67.757812 62.398438 67.601562 C 61.71875 67.214844 61.308594 66.9375 61.0625 66.175781 C 60.898438 65.15625 61 64.46875 61.601562 63.601562 C 62.261719 62.867188 63.066406 62.839844 64 63 Z M 63 64 C 62.800781 64.132812 62.605469 64.265625 62.398438 64.398438 C 62.398438 64.53125 62.398438 64.664062 62.398438 64.800781 C 62.992188 64.800781 63.589844 64.800781 64.199219 64.800781 C 64.199219 64.667969 64.199219 64.535156 64.199219 64.398438 C 63.632812 64.160156 63.632812 64.160156 63 64 Z M 63 64 "/>
<path style=" stroke:none;fill-rule:nonzero;fill:rgb(96.078432%,96.470588%,96.470588%);fill-opacity:1;" d="M 31.800781 63 C 32.460938 63.386719 32.898438 63.660156 33.125 64.414062 C 33.1875 64.851562 33.1875 64.851562 33.199219 65.601562 C 33 65.800781 33 65.800781 32.367188 65.820312 C 31.980469 65.816406 31.980469 65.816406 31.585938 65.8125 C 31.328125 65.8125 31.070312 65.808594 30.804688 65.808594 C 30.605469 65.804688 30.40625 65.800781 30.199219 65.800781 C 30.398438 65.996094 30.597656 66.195312 30.800781 66.398438 C 30.902344 66.335938 31.007812 66.269531 31.113281 66.199219 C 31.757812 65.9375 32.3125 65.972656 33 66 C 32.9375 66.585938 32.792969 66.808594 32.386719 67.25 C 31.628906 67.703125 31.0625 67.746094 30.199219 67.601562 C 29.484375 67.273438 29.242188 67.0625 28.800781 66.398438 C 28.667969 65.585938 28.609375 64.75 29.011719 64.007812 C 29.8125 63.03125 30.5625 62.800781 31.800781 63 Z M 30.199219 64.398438 C 30.199219 64.53125 30.199219 64.664062 30.199219 64.800781 C 30.726562 64.800781 31.257812 64.800781 31.800781 64.800781 C 31.734375 64.601562 31.667969 64.402344 31.601562 64.199219 C 30.925781 63.90625 30.84375 63.972656 30.199219 64.398438 Z M 30.199219 64.398438 "/>
<path style=" stroke:none;fill-rule:nonzero;fill:rgb(96.862745%,98.039216%,97.647059%);fill-opacity:1;" d="M 73.199219 63 C 73.699219 63.363281 73.699219 63.363281 74 63.800781 C 74 63.996094 74 64.195312 74 64.398438 C 73.296875 64.414062 72.675781 64.40625 72 64.199219 C 72.390625 64.660156 72.390625 64.660156 73.085938 64.773438 C 73.800781 65 73.800781 65 74.199219 65.363281 C 74.460938 65.933594 74.398438 66.210938 74.199219 66.800781 C 73.800781 67.398438 73.800781 67.398438 73.199219 67.601562 C 71.785156 67.714844 71.785156 67.714844 71.011719 67.238281 C 70.601562 66.800781 70.601562 66.800781 70.398438 66.199219 C 70.601562 66 70.601562 66 71.210938 65.988281 C 71.503906 65.992188 71.503906 65.992188 71.800781 66 C 71.800781 66.132812 71.800781 66.265625 71.800781 66.398438 C 72.128906 66.398438 72.460938 66.398438 72.800781 66.398438 C 72.800781 66.269531 72.800781 66.136719 72.800781 66 C 72.675781 65.960938 72.550781 65.921875 72.421875 65.882812 C 72.257812 65.832031 72.09375 65.777344 71.925781 65.726562 C 71.679688 65.648438 71.679688 65.648438 71.433594 65.570312 C 71 65.398438 71 65.398438 70.601562 65 C 70.511719 64.425781 70.511719 64.425781 70.601562 63.800781 C 71.375 62.878906 72.070312 62.855469 73.199219 63 Z M 73.199219 63 "/>
<path style=" stroke:none;fill-rule:nonzero;fill:rgb(96.078432%,96.470588%,96.470588%);fill-opacity:1;" d="M 69.0625 63.136719 C 69.515625 63.492188 69.628906 63.859375 69.800781 64.398438 C 68.3125 64.429688 68.3125 64.429688 67.601562 64.199219 C 68.09375 64.695312 68.539062 64.785156 69.199219 65 C 69.398438 65.132812 69.597656 65.265625 69.800781 65.398438 C 69.898438 66.074219 69.898438 66.074219 69.800781 66.800781 C 69.238281 67.484375 68.886719 67.585938 68.011719 67.710938 C 67.070312 67.664062 66.632812 67.277344 66 66.601562 C 66 66.402344 66 66.203125 66 66 C 66.574219 65.976562 66.574219 65.976562 67.199219 66 C 67.332031 66.132812 67.464844 66.265625 67.601562 66.398438 C 67.863281 66.398438 68.128906 66.398438 68.398438 66.398438 C 68.398438 66.269531 68.398438 66.136719 68.398438 66 C 68.273438 65.960938 68.148438 65.921875 68.019531 65.882812 C 67.855469 65.832031 67.695312 65.777344 67.523438 65.726562 C 67.28125 65.648438 67.28125 65.648438 67.03125 65.570312 C 66.601562 65.398438 66.601562 65.398438 66.199219 65 C 66.089844 63.949219 66.089844 63.949219 66.476562 63.4375 C 67.273438 62.855469 68.121094 62.859375 69.0625 63.136719 Z M 69.0625 63.136719 "/>
<path style=" stroke:none;fill-rule:nonzero;fill:rgb(96.862745%,98.039216%,98.039216%);fill-opacity:1;" d="M 41.199219 63 C 41.664062 63.136719 41.664062 63.136719 42 63.398438 C 42.25 63.925781 42.25 63.925781 42.398438 64.398438 C 40.914062 64.429688 40.914062 64.429688 40.199219 64.199219 C 40.132812 64.332031 40.066406 64.464844 40 64.601562 C 40.121094 64.625 40.246094 64.648438 40.371094 64.671875 C 40.613281 64.722656 40.613281 64.722656 40.863281 64.773438 C 41.023438 64.808594 41.183594 64.839844 41.347656 64.875 C 41.800781 65 41.800781 65 42.398438 65.398438 C 42.5 66.074219 42.5 66.074219 42.398438 66.800781 C 41.980469 67.3125 41.671875 67.550781 41.011719 67.667969 C 40.128906 67.707031 39.484375 67.601562 38.800781 67 C 38.636719 66.460938 38.636719 66.460938 38.601562 66 C 39.175781 65.976562 39.175781 65.976562 39.800781 66 C 39.933594 66.132812 40.0625 66.265625 40.199219 66.398438 C 40.464844 66.398438 40.726562 66.398438 41 66.398438 C 41 66.269531 41 66.136719 41 66 C 40.875 65.960938 40.75 65.921875 40.621094 65.882812 C 40.457031 65.832031 40.292969 65.777344 40.125 65.726562 C 39.882812 65.648438 39.882812 65.648438 39.632812 65.570312 C 39.199219 65.398438 39.199219 65.398438 38.800781 65 C 38.710938 64.425781 38.710938 64.425781 38.800781 63.800781 C 39.527344 62.964844 40.125 62.882812 41.199219 63 Z M 41.199219 63 "/>
<path style=" stroke:none;fill-rule:nonzero;fill:rgb(96.078432%,96.470588%,96.470588%);fill-opacity:1;" d="M 28 61.199219 C 28.226562 61.949219 28.226562 61.949219 28 62.398438 C 27.800781 62.398438 27.605469 62.398438 27.398438 62.398438 C 27.398438 62.597656 27.398438 62.796875 27.398438 63 C 27.664062 63.066406 27.929688 63.132812 28.199219 63.199219 C 28.199219 63.53125 28.199219 63.859375 28.199219 64.199219 C 27.9375 64.199219 27.671875 64.199219 27.398438 64.199219 C 27.398438 65.257812 27.398438 66.3125 27.398438 67.398438 C 26.9375 67.398438 26.476562 67.398438 26 67.398438 C 26 66.34375 26 65.289062 26 64.199219 C 25.800781 64.132812 25.605469 64.066406 25.398438 64 C 25.464844 63.671875 25.53125 63.339844 25.601562 63 C 25.730469 63 25.863281 63 26 63 C 26.03125 62.664062 26.03125 62.664062 26.0625 62.324219 C 26.109375 62.085938 26.152344 61.847656 26.199219 61.601562 C 26.886719 61.140625 27.195312 61.164062 28 61.199219 Z M 28 61.199219 "/>
<path style=" stroke:none;fill-rule:nonzero;fill:rgb(96.862745%,97.647059%,97.647059%);fill-opacity:1;" d="M 68.199219 70 C 68.398438 70.066406 68.597656 70.132812 68.800781 70.199219 C 68.800781 70.398438 68.800781 70.597656 68.800781 70.800781 C 69.296875 70.898438 69.296875 70.898438 69.800781 71 C 69.800781 71.527344 69.800781 72.054688 69.800781 72.601562 C 69.601562 72.601562 69.402344 72.601562 69.199219 72.601562 C 69.199219 72.203125 69.199219 71.808594 69.199219 71.398438 C 69.066406 71.398438 68.9375 71.398438 68.800781 71.398438 C 68.800781 71.796875 68.800781 72.191406 68.800781 72.601562 C 68.535156 72.601562 68.273438 72.601562 68 72.601562 C 67.933594 72.335938 67.867188 72.070312 67.800781 71.800781 C 67.734375 72.0625 67.667969 72.328125 67.601562 72.601562 C 66.941406 72.601562 66.28125 72.601562 65.601562 72.601562 C 65.46875 72.269531 65.335938 71.941406 65.199219 71.601562 C 64.871094 72.195312 64.539062 72.789062 64.199219 73.398438 C 64.003906 73.398438 63.804688 73.398438 63.601562 73.398438 C 63.609375 73.21875 63.617188 73.035156 63.625 72.851562 C 63.601562 72.210938 63.5 71.945312 63.199219 71.398438 C 63.199219 71.203125 63.199219 71.003906 63.199219 70.800781 C 63.464844 70.867188 63.726562 70.933594 64 71 C 64 71.199219 64 71.394531 64 71.601562 C 64.132812 71.601562 64.265625 71.601562 64.398438 71.601562 C 64.464844 71.335938 64.53125 71.070312 64.601562 70.800781 C 64.996094 70.800781 65.390625 70.800781 65.800781 70.800781 C 65.800781 70.933594 65.800781 71.0625 65.800781 71.199219 C 65.933594 71.199219 66.0625 71.199219 66.199219 71.199219 C 66.199219 71.066406 66.199219 70.9375 66.199219 70.800781 C 66.976562 70.976562 66.976562 70.976562 67.199219 71.199219 C 67.265625 71.066406 67.332031 70.9375 67.398438 70.800781 C 67.53125 70.800781 67.664062 70.800781 67.800781 70.800781 C 67.933594 70.535156 68.0625 70.273438 68.199219 70 Z M 68.199219 70 "/>
<path style=" stroke:none;fill-rule:nonzero;fill:rgb(96.862745%,97.647059%,97.647059%);fill-opacity:1;" d="M 43.800781 62 C 44.128906 62 44.460938 62 44.800781 62 C 44.800781 62.328125 44.800781 62.660156 44.800781 63 C 44.960938 62.996094 45.121094 62.992188 45.289062 62.988281 C 45.800781 63 45.800781 63 46 63.199219 C 46.007812 63.535156 46.007812 63.867188 46 64.199219 C 45.671875 64.265625 45.339844 64.332031 45 64.398438 C 45 64.929688 45 65.457031 45 66 C 45.496094 66.199219 45.496094 66.199219 46 66.398438 C 46 66.730469 46 67.058594 46 67.398438 C 45.390625 67.457031 44.808594 67.480469 44.199219 67.398438 C 43.789062 67.039062 43.789062 67.039062 43.601562 66.398438 C 43.554688 65.664062 43.566406 64.9375 43.601562 64.199219 C 43.402344 64.199219 43.203125 64.199219 43 64.199219 C 43 63.871094 43 63.539062 43 63.199219 C 43.265625 63.132812 43.527344 63.066406 43.800781 63 C 43.800781 62.671875 43.800781 62.339844 43.800781 62 Z M 43.800781 62 "/>
<path style=" stroke:none;fill-rule:nonzero;fill:rgb(97.647059%,98.431373%,98.431373%);fill-opacity:1;" d="M 51.199219 70.199219 C 51.464844 70.199219 51.726562 70.199219 52 70.199219 C 52.066406 70.398438 52.132812 70.597656 52.199219 70.800781 C 52.472656 70.792969 52.472656 70.792969 52.753906 70.785156 C 52.992188 70.78125 53.230469 70.777344 53.476562 70.773438 C 53.710938 70.769531 53.949219 70.765625 54.191406 70.761719 C 54.800781 70.800781 54.800781 70.800781 55.199219 71.199219 C 55.398438 71.066406 55.597656 70.9375 55.800781 70.800781 C 56.910156 70.910156 56.910156 70.910156 57.199219 71.199219 C 57.140625 71.667969 57.074219 72.136719 57 72.601562 C 56.539062 72.726562 56.539062 72.726562 56 72.800781 C 55.800781 72.667969 55.605469 72.535156 55.398438 72.398438 C 54.871094 72.460938 54.871094 72.460938 54.398438 72.601562 C 54.398438 72.203125 54.398438 71.808594 54.398438 71.398438 C 54.269531 71.398438 54.136719 71.398438 54 71.398438 C 54 71.796875 54 72.191406 54 72.601562 C 53.734375 72.535156 53.472656 72.46875 53.199219 72.398438 C 53.132812 72.136719 53.066406 71.871094 53 71.601562 C 52.933594 71.929688 52.867188 72.261719 52.800781 72.601562 C 52.273438 72.601562 51.742188 72.601562 51.199219 72.601562 C 51.199219 71.808594 51.199219 71.015625 51.199219 70.199219 Z M 51.199219 70.199219 "/>
<path style=" stroke:none;fill-rule:nonzero;fill:rgb(97.254902%,98.431373%,98.431373%);fill-opacity:1;" d="M 72 71 C 72.269531 70.9375 72.535156 70.875 72.800781 70.800781 C 73.066406 70.859375 73.335938 70.925781 73.601562 71 C 73.664062 70.933594 73.730469 70.867188 73.800781 70.800781 C 74.269531 70.859375 74.734375 70.925781 75.199219 71 C 75.375 71.488281 75.421875 71.734375 75.261719 72.238281 C 75 72.601562 75 72.601562 74.625 72.773438 C 74.085938 72.808594 73.835938 72.71875 73.398438 72.398438 C 73.25 71.976562 73.25 71.976562 73.199219 71.601562 C 73.066406 71.601562 72.9375 71.601562 72.800781 71.601562 C 72.800781 71.929688 72.800781 72.261719 72.800781 72.601562 C 72.65625 72.558594 72.511719 72.515625 72.363281 72.476562 C 71.707031 72.386719 71.398438 72.546875 70.800781 72.800781 C 70.601562 72.734375 70.402344 72.667969 70.199219 72.601562 C 69.9375 71.523438 69.9375 71.523438 70.199219 71.011719 C 70.816406 70.683594 71.328125 70.882812 72 71 Z M 72 71 "/>
<path style=" stroke:none;fill-rule:nonzero;fill:rgb(96.862745%,98.039216%,97.647059%);fill-opacity:1;" d="M 50.601562 70.398438 C 50.601562 70.53125 50.601562 70.664062 50.601562 70.800781 C 50.730469 70.800781 50.863281 70.800781 51 70.800781 C 51 70.996094 51 71.195312 51 71.398438 C 50.867188 71.398438 50.734375 71.398438 50.601562 71.398438 C 50.730469 71.796875 50.863281 72.191406 51 72.601562 C 50.523438 72.550781 50.523438 72.550781 50 72.398438 C 49.867188 72.136719 49.734375 71.871094 49.601562 71.601562 C 49.335938 72.195312 49.070312 72.789062 48.800781 73.398438 C 48.535156 73.398438 48.273438 73.398438 48 73.398438 C 47.933594 72.804688 47.867188 72.210938 47.800781 71.601562 C 47.734375 71.929688 47.667969 72.261719 47.601562 72.601562 C 47.402344 72.601562 47.203125 72.601562 47 72.601562 C 46.933594 72.269531 46.867188 71.941406 46.800781 71.601562 C 46.734375 71.601562 46.667969 71.601562 46.601562 71.601562 C 46.535156 71.929688 46.46875 72.261719 46.398438 72.601562 C 46.203125 72.601562 46.003906 72.601562 45.800781 72.601562 C 45.800781 72.007812 45.800781 71.410156 45.800781 70.800781 C 46.226562 70.789062 46.648438 70.78125 47.074219 70.773438 C 47.3125 70.769531 47.546875 70.765625 47.792969 70.761719 C 48.398438 70.800781 48.398438 70.800781 48.800781 71.199219 C 48.984375 71.066406 49.171875 70.9375 49.363281 70.800781 C 50 70.398438 50 70.398438 50.601562 70.398438 Z M 50.601562 70.398438 "/>
<path style=" stroke:none;fill-rule:nonzero;fill:rgb(96.862745%,97.647059%,97.647059%);fill-opacity:1;" d="M 58 63 C 58.335938 63.058594 58.667969 63.128906 59 63.199219 C 59.546875 63.199219 60.0625 63.09375 60.601562 63 C 60.601562 63.394531 60.601562 63.792969 60.601562 64.199219 C 60.40625 64.292969 60.210938 64.390625 60.011719 64.488281 C 59.4375 64.742188 59.4375 64.742188 59.199219 65 C 59.152344 65.402344 59.117188 65.808594 59.085938 66.210938 C 59.070312 66.433594 59.054688 66.65625 59.035156 66.882812 C 59.023438 67.054688 59.011719 67.222656 59 67.398438 C 58.605469 67.398438 58.207031 67.398438 57.800781 67.398438 C 57.792969 66.703125 57.789062 66.007812 57.789062 65.3125 C 57.785156 65.113281 57.785156 64.914062 57.78125 64.710938 C 57.78125 64.523438 57.78125 64.332031 57.78125 64.136719 C 57.78125 63.964844 57.777344 63.789062 57.777344 63.609375 C 57.800781 63.199219 57.800781 63.199219 58 63 Z M 58 63 "/>
<path style=" stroke:none;fill-rule:nonzero;fill:rgb(96.862745%,98.039216%,98.039216%);fill-opacity:1;" d="M 59.601562 70.199219 C 59.929688 70.265625 60.261719 70.332031 60.601562 70.398438 C 60.730469 70.863281 60.863281 71.324219 61 71.800781 C 61.132812 71.46875 61.265625 71.140625 61.398438 70.800781 C 61.863281 70.800781 62.324219 70.800781 62.800781 70.800781 C 63.171875 71.425781 63.242188 71.875 63.199219 72.601562 C 62.9375 72.601562 62.671875 72.601562 62.398438 72.601562 C 62.398438 72.203125 62.398438 71.808594 62.398438 71.398438 C 62.269531 71.398438 62.136719 71.398438 62 71.398438 C 62 71.796875 62 72.191406 62 72.601562 C 61.472656 72.601562 60.945312 72.601562 60.398438 72.601562 C 60.398438 72.46875 60.398438 72.335938 60.398438 72.199219 C 60.171875 72.300781 60.171875 72.300781 59.9375 72.398438 C 59.398438 72.601562 59.398438 72.601562 58.800781 72.601562 C 58.933594 71.722656 59.238281 71.003906 59.601562 70.199219 Z M 59.601562 70.199219 "/>
<path style=" stroke:none;fill-rule:nonzero;fill:rgb(96.470588%,95.686275%,96.078432%);fill-opacity:1;" d="M 29 71 C 29.066406 70.933594 29.132812 70.867188 29.199219 70.800781 C 29.667969 70.859375 30.136719 70.925781 30.601562 71 C 30.601562 71.527344 30.601562 72.054688 30.601562 72.601562 C 29.496094 72.851562 29.496094 72.851562 28.988281 72.585938 C 28.859375 72.527344 28.730469 72.464844 28.601562 72.398438 C 28.261719 72.523438 27.929688 72.65625 27.601562 72.800781 C 27.402344 72.734375 27.203125 72.667969 27 72.601562 C 26.738281 71.527344 26.738281 71.527344 26.988281 71.011719 C 27.660156 70.664062 28.265625 70.882812 29 71 Z M 29 71 "/>
<path style=" stroke:none;fill-rule:nonzero;fill:rgb(98.039216%,99.607843%,99.607843%);fill-opacity:1;" d="M 31.386719 62.917969 C 32.148438 63.066406 32.507812 63.421875 33 64 C 33.167969 64.5625 33.191406 65 33.199219 65.601562 C 33 65.800781 33 65.800781 32.367188 65.820312 C 31.980469 65.816406 31.980469 65.816406 31.585938 65.8125 C 31.328125 65.8125 31.070312 65.808594 30.804688 65.808594 C 30.605469 65.804688 30.40625 65.800781 30.199219 65.800781 C 30.398438 65.996094 30.597656 66.195312 30.800781 66.398438 C 30.902344 66.335938 31.007812 66.269531 31.113281 66.199219 C 31.757812 65.9375 32.3125 65.972656 33 66 C 32.9375 66.585938 32.792969 66.808594 32.386719 67.25 C 31.628906 67.703125 31.0625 67.746094 30.199219 67.601562 C 29.484375 67.273438 29.242188 67.0625 28.800781 66.398438 C 28.738281 65.925781 28.738281 65.925781 28.738281 65.398438 C 28.734375 65.226562 28.730469 65.054688 28.726562 64.875 C 28.8125 64.316406 28.96875 64.148438 29.398438 63.800781 C 29.367188 63.898438 29.335938 63.996094 29.300781 64.101562 C 29.113281 65.027344 28.988281 65.867188 29.511719 66.6875 C 30.160156 67.105469 30.628906 67.1875 31.398438 67.199219 C 31.988281 66.929688 32.308594 66.78125 32.601562 66.199219 C 32.421875 66.300781 32.246094 66.398438 32.0625 66.5 C 31.417969 66.792969 31.089844 66.910156 30.398438 66.800781 C 30.039062 66.550781 30.039062 66.550781 29.800781 66.199219 C 29.800781 65.9375 29.800781 65.671875 29.800781 65.398438 C 30.789062 65.398438 31.78125 65.398438 32.800781 65.398438 C 32.546875 64.082031 32.546875 64.082031 32 63.601562 C 31.421875 63.550781 31.421875 63.550781 30.773438 63.574219 C 30.445312 63.582031 30.445312 63.582031 30.109375 63.585938 C 29.941406 63.589844 29.773438 63.59375 29.601562 63.601562 C 30.140625 62.972656 30.546875 62.882812 31.386719 62.917969 Z M 31.386719 62.917969 "/>
<path style=" stroke:none;fill-rule:nonzero;fill:rgb(96.470588%,96.470588%,96.470588%);fill-opacity:1;" d="M 40.601562 70.398438 C 40.796875 70.398438 40.996094 70.398438 41.199219 70.398438 C 41.199219 70.53125 41.199219 70.664062 41.199219 70.800781 C 41.332031 70.800781 41.464844 70.800781 41.601562 70.800781 C 41.601562 70.996094 41.601562 71.195312 41.601562 71.398438 C 41.46875 71.398438 41.335938 71.398438 41.199219 71.398438 C 41.199219 71.597656 41.199219 71.796875 41.199219 72 C 41.597656 72 41.992188 72 42.398438 72 C 42.335938 72.328125 42.269531 72.660156 42.199219 73 C 42.003906 73 41.804688 73 41.601562 73 C 41.601562 72.867188 41.601562 72.734375 41.601562 72.601562 C 41.269531 72.601562 40.941406 72.601562 40.601562 72.601562 C 40.535156 72.269531 40.46875 71.941406 40.398438 71.601562 C 40.335938 71.929688 40.269531 72.261719 40.199219 72.601562 C 39.738281 72.726562 39.738281 72.726562 39.199219 72.800781 C 39.003906 72.667969 38.804688 72.535156 38.601562 72.398438 C 38.550781 71.6875 38.550781 71.6875 38.601562 71 C 38.800781 70.800781 38.800781 70.800781 39.167969 70.78125 C 39.578125 70.785156 39.988281 70.792969 40.398438 70.800781 C 40.464844 70.667969 40.53125 70.535156 40.601562 70.398438 Z M 40.601562 70.398438 "/>
<path style=" stroke:none;fill-rule:nonzero;fill:rgb(99.215686%,96.862745%,92.941177%);fill-opacity:1;" d="M 29.601562 51.398438 C 32.636719 51.398438 35.671875 51.398438 38.800781 51.398438 C 38.800781 51.53125 38.800781 51.664062 38.800781 51.800781 C 38.242188 51.984375 37.914062 52.023438 37.34375 52.023438 C 37.171875 52.023438 37 52.023438 36.820312 52.023438 C 36.636719 52.023438 36.449219 52.019531 36.261719 52.019531 C 36.070312 52.019531 35.878906 52.019531 35.683594 52.019531 C 35.078125 52.015625 34.46875 52.015625 33.863281 52.011719 C 33.449219 52.011719 33.039062 52.011719 32.628906 52.007812 C 31.617188 52.007812 30.609375 52.003906 29.601562 52 C 29.601562 51.800781 29.601562 51.605469 29.601562 51.398438 Z M 29.601562 51.398438 "/>
<path style=" stroke:none;fill-rule:nonzero;fill:rgb(98.039216%,99.607843%,99.607843%);fill-opacity:1;" d="M 69.0625 63.136719 C 69.515625 63.492188 69.628906 63.859375 69.800781 64.398438 C 68.3125 64.429688 68.3125 64.429688 67.601562 64.199219 C 68.09375 64.695312 68.539062 64.785156 69.199219 65 C 69.398438 65.132812 69.597656 65.265625 69.800781 65.398438 C 69.898438 66.074219 69.898438 66.074219 69.800781 66.800781 C 69.289062 67.367188 69.003906 67.582031 68.238281 67.648438 C 68.09375 67.632812 67.949219 67.617188 67.800781 67.601562 C 67.914062 67.546875 68.03125 67.492188 68.148438 67.4375 C 68.625 67.1875 69.011719 66.972656 69.398438 66.601562 C 69.398438 66.269531 69.398438 65.941406 69.398438 65.601562 C 68.675781 65.335938 67.949219 65.070312 67.199219 64.800781 C 67.199219 64 67.199219 64 67.398438 63.800781 C 68.039062 63.765625 68.585938 63.816406 69.199219 64 C 69.199219 63.867188 69.199219 63.734375 69.199219 63.601562 C 68.34375 63.601562 67.484375 63.601562 66.601562 63.601562 C 66.601562 63.996094 66.601562 64.390625 66.601562 64.800781 C 66.816406 64.890625 67.027344 64.980469 67.25 65.074219 C 67.777344 65.300781 68.292969 65.535156 68.800781 65.800781 C 68.734375 66.128906 68.667969 66.460938 68.601562 66.800781 C 68.039062 66.851562 68.039062 66.851562 67.398438 66.800781 C 67.023438 66.398438 67.023438 66.398438 66.800781 66 C 66.972656 66.097656 66.972656 66.097656 67.148438 66.199219 C 67.640625 66.453125 67.640625 66.453125 68.398438 66.398438 C 68.398438 66.269531 68.398438 66.136719 68.398438 66 C 68.273438 65.960938 68.148438 65.921875 68.019531 65.882812 C 67.855469 65.832031 67.695312 65.777344 67.523438 65.726562 C 67.28125 65.648438 67.28125 65.648438 67.03125 65.570312 C 66.601562 65.398438 66.601562 65.398438 66.199219 65 C 66.089844 63.949219 66.089844 63.949219 66.476562 63.4375 C 67.273438 62.855469 68.121094 62.859375 69.0625 63.136719 Z M 69.0625 63.136719 "/>
<path style=" stroke:none;fill-rule:nonzero;fill:rgb(99.215686%,94.901961%,90.196079%);fill-opacity:1;" d="M 28.601562 45.800781 C 29.503906 45.796875 30.40625 45.792969 31.308594 45.789062 C 31.617188 45.789062 31.921875 45.785156 32.230469 45.785156 C 33.898438 45.777344 35.539062 45.789062 37.199219 46 C 37.199219 46.132812 37.199219 46.265625 37.199219 46.398438 C 35.394531 46.683594 33.605469 46.578125 31.789062 46.511719 C 31.457031 46.5 31.128906 46.492188 30.800781 46.480469 C 30 46.457031 29.199219 46.429688 28.398438 46.398438 C 28.464844 46.203125 28.53125 46.003906 28.601562 45.800781 Z M 28.601562 45.800781 "/>
<path style=" stroke:none;fill-rule:nonzero;fill:rgb(96.862745%,96.862745%,97.254902%);fill-opacity:1;" d="M 32.800781 70.398438 C 33.0625 70.464844 33.328125 70.53125 33.601562 70.601562 C 33.726562 70.960938 33.726562 70.960938 33.800781 71.398438 C 33.601562 71.695312 33.601562 71.695312 33.398438 72 C 33.53125 72 33.664062 72 33.800781 72 C 33.800781 72.199219 33.800781 72.394531 33.800781 72.601562 C 33.324219 72.5625 33.324219 72.5625 32.800781 72.398438 C 32.539062 71.886719 32.539062 71.886719 32.398438 71.398438 C 32.398438 71.730469 32.398438 72.058594 32.398438 72.398438 C 31.9375 72.625 31.9375 72.625 31.398438 72.800781 C 31.203125 72.667969 31.003906 72.535156 30.800781 72.398438 C 30.75 71.6875 30.75 71.6875 30.800781 71 C 31 70.800781 31 70.800781 31.371094 70.78125 C 31.78125 70.785156 32.191406 70.792969 32.601562 70.800781 C 32.664062 70.667969 32.730469 70.535156 32.800781 70.398438 Z M 32.800781 70.398438 "/>
<path style=" stroke:none;fill-rule:nonzero;fill:rgb(98.039216%,99.607843%,99.607843%);fill-opacity:1;" d="M 52.601562 63 C 52.867188 63.058594 53.136719 63.128906 53.398438 63.199219 C 53.816406 63.230469 53.816406 63.230469 54.199219 63 C 54.667969 62.992188 55.132812 62.992188 55.601562 63 C 55.664062 63.132812 55.730469 63.265625 55.800781 63.398438 C 55.675781 63.410156 55.554688 63.417969 55.425781 63.429688 C 55.265625 63.445312 55.105469 63.460938 54.9375 63.476562 C 54.699219 63.496094 54.699219 63.496094 54.453125 63.515625 C 53.945312 63.578125 53.945312 63.578125 53.398438 64 C 53.335938 63.800781 53.269531 63.605469 53.199219 63.398438 C 53.003906 63.398438 52.804688 63.398438 52.601562 63.398438 C 52.601562 65.3125 52.601562 67.226562 52.601562 69.199219 C 52.796875 69.132812 52.996094 69.066406 53.199219 69 C 53.199219 68.273438 53.199219 67.546875 53.199219 66.800781 C 53.464844 66.867188 53.726562 66.933594 54 67 C 55.023438 67.253906 55.023438 67.253906 55.960938 66.863281 C 56.355469 66.445312 56.59375 66.128906 56.800781 65.601562 C 56.867188 65.796875 56.933594 65.996094 57 66.199219 C 56.179688 67.3125 56.179688 67.3125 55.601562 67.601562 C 54.292969 67.648438 54.292969 67.648438 53.800781 67.398438 C 53.789062 67.527344 53.777344 67.65625 53.761719 67.785156 C 53.738281 68.035156 53.738281 68.035156 53.710938 68.289062 C 53.695312 68.453125 53.679688 68.617188 53.664062 68.785156 C 53.601562 69.199219 53.601562 69.199219 53.398438 69.398438 C 53.066406 69.40625 52.734375 69.410156 52.398438 69.398438 C 52.394531 68.519531 52.390625 67.640625 52.390625 66.761719 C 52.386719 66.460938 52.386719 66.164062 52.386719 65.863281 C 52.382812 65.433594 52.382812 65.003906 52.378906 64.574219 C 52.378906 64.316406 52.378906 64.058594 52.378906 63.792969 C 52.398438 63.199219 52.398438 63.199219 52.601562 63 Z M 52.601562 63 "/>
<path style=" stroke:none;fill-rule:nonzero;fill:rgb(96.862745%,98.431373%,98.039216%);fill-opacity:1;" d="M 44.199219 70.199219 C 44.5625 70.210938 44.5625 70.210938 45 70.398438 C 45.417969 71.195312 45.601562 71.695312 45.601562 72.601562 C 45.066406 72.464844 44.535156 72.332031 44 72.199219 C 44 72.332031 44 72.464844 44 72.601562 C 43.800781 72.601562 43.605469 72.601562 43.398438 72.601562 C 43.507812 71.6875 43.757812 71.003906 44.199219 70.199219 Z M 44.199219 70.199219 "/>
<path style=" stroke:none;fill-rule:nonzero;fill:rgb(99.607843%,97.647059%,90.588236%);fill-opacity:1;" d="M 35.191406 49.796875 C 35.578125 49.808594 35.578125 49.808594 35.976562 49.824219 C 36.183594 49.832031 36.183594 49.832031 36.390625 49.839844 C 36.832031 49.855469 37.273438 49.871094 37.710938 49.886719 C 38.011719 49.898438 38.308594 49.910156 38.605469 49.917969 C 39.335938 49.945312 40.070312 49.972656 40.800781 50 C 40.800781 50.132812 40.800781 50.265625 40.800781 50.398438 C 37.414062 50.609375 37.414062 50.609375 35.800781 50.648438 C 35.613281 50.65625 35.429688 50.660156 35.238281 50.664062 C 35.019531 50.632812 35.019531 50.632812 34.800781 50.601562 C 34.667969 50.402344 34.535156 50.203125 34.398438 50 C 34.601562 49.800781 34.601562 49.800781 35.191406 49.796875 Z M 35.191406 49.796875 "/>
<path style=" stroke:none;fill-rule:nonzero;fill:rgb(99.607843%,98.431373%,94.901961%);fill-opacity:1;" d="M 31 44.199219 C 32.914062 44.199219 34.828125 44.199219 36.800781 44.199219 C 36.800781 44.332031 36.800781 44.464844 36.800781 44.601562 C 35.523438 44.789062 34.289062 44.824219 33 44.8125 C 32.808594 44.8125 32.613281 44.8125 32.414062 44.808594 C 31.941406 44.808594 31.472656 44.804688 31 44.800781 C 31 44.601562 31 44.402344 31 44.199219 Z M 31 44.199219 "/>
<path style=" stroke:none;fill-rule:nonzero;fill:rgb(98.431373%,99.607843%,99.607843%);fill-opacity:1;" d="M 27.800781 61.199219 C 28.011719 61.574219 28.011719 61.574219 28.199219 62 C 28.132812 62.132812 28.066406 62.265625 28 62.398438 C 27.800781 62.398438 27.605469 62.398438 27.398438 62.398438 C 27.398438 62.597656 27.398438 62.796875 27.398438 63 C 27.664062 63.066406 27.929688 63.132812 28.199219 63.199219 C 28.199219 63.53125 28.199219 63.859375 28.199219 64.199219 C 27.9375 64.199219 27.671875 64.199219 27.398438 64.199219 C 27.398438 65.257812 27.398438 66.3125 27.398438 67.398438 C 26.9375 67.398438 26.476562 67.398438 26 67.398438 C 26.097656 67.101562 26.097656 67.101562 26.199219 66.800781 C 26.199219 66.933594 26.199219 67.0625 26.199219 67.199219 C 26.464844 67.199219 26.726562 67.199219 27 67.199219 C 27 66.144531 27 65.089844 27 64 C 27.328125 64 27.660156 64 28 64 C 28 63.800781 28 63.605469 28 63.398438 C 27.671875 63.335938 27.339844 63.269531 27 63.199219 C 27.066406 62.871094 27.132812 62.539062 27.199219 62.199219 C 27.398438 62.132812 27.597656 62.066406 27.800781 62 C 27.800781 61.734375 27.800781 61.472656 27.800781 61.199219 Z M 27.800781 61.199219 "/>
<path style=" stroke:none;fill-rule:nonzero;fill:rgb(95.686275%,94.117647%,94.509804%);fill-opacity:1;" d="M 37 70.800781 C 37.726562 70.875 37.726562 70.875 38.398438 71 C 38.398438 71.527344 38.398438 72.054688 38.398438 72.601562 C 37.273438 72.824219 37.273438 72.824219 36.601562 72.601562 C 36.574219 71.925781 36.574219 71.925781 36.601562 71.199219 C 36.730469 71.066406 36.863281 70.9375 37 70.800781 Z M 37 70.800781 "/>
<path style=" stroke:none;fill-rule:nonzero;fill:rgb(96.862745%,96.862745%,96.862745%);fill-opacity:1;" d="M 34.800781 70.199219 C 35.394531 70.199219 35.988281 70.199219 36.601562 70.199219 C 36.601562 70.332031 36.601562 70.464844 36.601562 70.601562 C 36.472656 70.625 36.34375 70.648438 36.210938 70.675781 C 36.078125 70.714844 35.941406 70.757812 35.800781 70.800781 C 35.734375 70.933594 35.667969 71.0625 35.601562 71.199219 C 35.863281 71.199219 36.128906 71.199219 36.398438 71.199219 C 36.398438 71.332031 36.398438 71.464844 36.398438 71.601562 C 36.136719 71.601562 35.871094 71.601562 35.601562 71.601562 C 35.601562 71.929688 35.601562 72.261719 35.601562 72.601562 C 35.335938 72.601562 35.070312 72.601562 34.800781 72.601562 C 34.800781 71.808594 34.800781 71.015625 34.800781 70.199219 Z M 34.800781 70.199219 "/>
<path style=" stroke:none;fill-rule:nonzero;fill:rgb(96.862745%,98.039216%,97.647059%);fill-opacity:1;" d="M 25 70.199219 C 25.59375 70.199219 26.1875 70.199219 26.800781 70.199219 C 26.800781 70.332031 26.800781 70.464844 26.800781 70.601562 C 26.46875 70.730469 26.140625 70.863281 25.800781 71 C 26.0625 71.066406 26.328125 71.132812 26.601562 71.199219 C 26.601562 71.332031 26.601562 71.464844 26.601562 71.601562 C 26.335938 71.664062 26.070312 71.730469 25.800781 71.800781 C 25.734375 72.0625 25.667969 72.328125 25.601562 72.601562 C 25.402344 72.601562 25.203125 72.601562 25 72.601562 C 25 71.808594 25 71.015625 25 70.199219 Z M 25 70.199219 "/>
<path style=" stroke:none;fill-rule:nonzero;fill:rgb(95.686275%,93.333334%,94.509804%);fill-opacity:1;" d="M 74 71 C 74.425781 71.074219 74.425781 71.074219 74.800781 71.199219 C 74.800781 71.332031 74.800781 71.464844 74.800781 71.601562 C 74.601562 71.601562 74.402344 71.601562 74.199219 71.601562 C 74.53125 71.664062 74.859375 71.730469 75.199219 71.800781 C 75.132812 72.0625 75.066406 72.328125 75 72.601562 C 74.480469 72.785156 74.273438 72.828125 73.75 72.613281 C 73.632812 72.542969 73.519531 72.472656 73.398438 72.398438 C 73.550781 71.449219 73.550781 71.449219 74 71 Z M 74 71 "/>
<path style=" stroke:none;fill-rule:nonzero;fill:rgb(96.470588%,94.509804%,95.294118%);fill-opacity:1;" d="M 55.800781 71 C 56.199219 70.992188 56.601562 70.992188 57 71 C 57.199219 71.199219 57.199219 71.199219 57.226562 71.699219 C 57.199219 72.199219 57.199219 72.199219 57 72.398438 C 56.601562 72.40625 56.199219 72.410156 55.800781 72.398438 C 55.574219 71.449219 55.574219 71.449219 55.800781 71 Z M 55.800781 71 "/>
<path style=" stroke:none;fill-rule:nonzero;fill:rgb(98.039216%,100%,99.607843%);fill-opacity:1;" d="M 27.238281 61.273438 C 27.417969 61.335938 27.417969 61.335938 27.601562 61.398438 C 27.363281 61.503906 27.363281 61.503906 27.125 61.613281 C 26.433594 62.125 26.371094 62.578125 26.199219 63.398438 C 26.066406 63.398438 25.9375 63.398438 25.800781 63.398438 C 25.734375 63.664062 25.667969 63.929688 25.601562 64.199219 C 25.351562 63.703125 25.445312 63.519531 25.601562 63 C 25.730469 63 25.863281 63 26 63 C 26.03125 62.664062 26.03125 62.664062 26.0625 62.324219 C 26.109375 62.085938 26.152344 61.847656 26.199219 61.601562 C 26.800781 61.199219 26.800781 61.199219 27.238281 61.273438 Z M 27.238281 61.273438 "/>
<path style=" stroke:none;fill-rule:nonzero;fill:rgb(96.862745%,98.431373%,98.039216%);fill-opacity:1;" d="M 37 70.800781 C 37.460938 70.867188 37.925781 70.933594 38.398438 71 C 38.398438 71.328125 38.398438 71.660156 38.398438 72 C 38.269531 72 38.136719 72 38 72 C 37.933594 71.800781 37.867188 71.605469 37.800781 71.398438 C 37.734375 71.597656 37.667969 71.796875 37.601562 72 C 37.535156 71.867188 37.46875 71.734375 37.398438 71.601562 C 37.136719 71.601562 36.871094 71.601562 36.601562 71.601562 C 36.730469 71.335938 36.863281 71.070312 37 70.800781 Z M 37 70.800781 "/>
<path style=" stroke:none;fill-rule:nonzero;fill:rgb(95.686275%,93.333334%,94.509804%);fill-opacity:1;" d="M 70.398438 71.199219 C 70.800781 71.601562 70.800781 71.601562 71 72 C 71.265625 71.933594 71.527344 71.867188 71.800781 71.800781 C 71.734375 72.0625 71.667969 72.328125 71.601562 72.601562 C 70.851562 72.824219 70.851562 72.824219 70.398438 72.601562 C 70.148438 71.703125 70.148438 71.703125 70.398438 71.199219 Z M 70.398438 71.199219 "/>
<path style=" stroke:none;fill-rule:nonzero;fill:rgb(97.647059%,99.607843%,99.215686%);fill-opacity:1;" d="M 30.601562 71 C 30.535156 71.199219 30.46875 71.394531 30.398438 71.601562 C 30.214844 71.554688 30.027344 71.507812 29.835938 71.460938 C 29.207031 71.328125 29.207031 71.328125 28.824219 71.6875 C 28.75 71.789062 28.675781 71.894531 28.601562 72 C 28.601562 71.734375 28.601562 71.472656 28.601562 71.199219 C 29.371094 70.6875 29.71875 70.832031 30.601562 71 Z M 30.601562 71 "/>
<path style=" stroke:none;fill-rule:nonzero;fill:rgb(94.901961%,91.37255%,92.941177%);fill-opacity:1;" d="M 39.398438 71 C 39.464844 71.132812 39.53125 71.265625 39.601562 71.398438 C 39.730469 71.398438 39.863281 71.398438 40 71.398438 C 39.933594 71.53125 39.867188 71.664062 39.800781 71.800781 C 39.800781 71.996094 39.800781 72.195312 39.800781 72.398438 C 39.46875 72.335938 39.140625 72.269531 38.800781 72.199219 C 38.734375 72.003906 38.667969 71.804688 38.601562 71.601562 C 38.800781 71.199219 38.800781 71.199219 39.398438 71 Z M 39.398438 71 "/>
<path style=" stroke:none;fill-rule:nonzero;fill:rgb(98.039216%,99.215686%,98.823529%);fill-opacity:1;" d="M 41.398438 72 C 41.730469 72 42.058594 72 42.398438 72 C 42.335938 72.328125 42.269531 72.660156 42.199219 73 C 42.003906 73 41.804688 73 41.601562 73 C 41.601562 72.867188 41.601562 72.734375 41.601562 72.601562 C 41.269531 72.601562 40.941406 72.601562 40.601562 72.601562 C 40.664062 72.46875 40.730469 72.335938 40.800781 72.199219 C 40.996094 72.265625 41.195312 72.332031 41.398438 72.398438 C 41.398438 72.269531 41.398438 72.136719 41.398438 72 Z M 41.398438 72 "/>
<path style=" stroke:none;fill-rule:nonzero;fill:rgb(97.254902%,99.607843%,99.215686%);fill-opacity:1;" d="M 59.601562 70.199219 C 59.929688 70.265625 60.261719 70.332031 60.601562 70.398438 C 60.535156 70.53125 60.46875 70.664062 60.398438 70.800781 C 60.203125 70.667969 60.003906 70.535156 59.800781 70.398438 C 59.867188 70.730469 59.933594 71.058594 60 71.398438 C 59.867188 71.398438 59.734375 71.398438 59.601562 71.398438 C 59.402344 71.597656 59.203125 71.796875 59 72 C 59.199219 71.40625 59.394531 70.8125 59.601562 70.199219 Z M 59.601562 70.199219 "/>
<path style=" stroke:none;fill-rule:nonzero;fill:rgb(95.294118%,92.156863%,92.941177%);fill-opacity:1;" d="M 46.398438 71 C 46.398438 71.527344 46.398438 72.054688 46.398438 72.601562 C 46.203125 72.601562 46.003906 72.601562 45.800781 72.601562 C 45.800781 72.136719 45.800781 71.675781 45.800781 71.199219 C 46.199219 71 46.199219 71 46.398438 71 Z M 46.398438 71 "/>
<path style=" stroke:none;fill-rule:nonzero;fill:rgb(95.294118%,90.980393%,93.333334%);fill-opacity:1;" d="M 31 71.199219 C 31.386719 71.351562 31.386719 71.351562 31.800781 71.601562 C 31.949219 72.023438 31.949219 72.023438 32 72.398438 C 31.671875 72.335938 31.339844 72.269531 31 72.199219 C 30.933594 72.003906 30.867188 71.804688 30.800781 71.601562 C 30.867188 71.46875 30.933594 71.335938 31 71.199219 Z M 31 71.199219 "/>
<path style=" stroke:none;fill-rule:nonzero;fill:rgb(95.294118%,92.156863%,93.333334%);fill-opacity:1;" d="M 47 71.199219 C 47.132812 71.199219 47.265625 71.199219 47.398438 71.199219 C 47.464844 71.660156 47.53125 72.125 47.601562 72.601562 C 47.402344 72.601562 47.203125 72.601562 47 72.601562 C 47 72.136719 47 71.675781 47 71.199219 Z M 47 71.199219 "/>
<path style=" stroke:none;fill-rule:nonzero;fill:rgb(97.647059%,98.823529%,98.431373%);fill-opacity:1;" d="M 57.398438 72 C 57.597656 72.066406 57.796875 72.132812 58 72.199219 C 57.867188 72.464844 57.734375 72.726562 57.601562 73 C 57.46875 73 57.335938 73 57.199219 73 C 57.265625 72.671875 57.332031 72.339844 57.398438 72 Z M 57.398438 72 "/>
</g>
</svg>
